<svg aria-hidden="true" style="position: absolute; width: 0; height: 0; overflow: hidden;" version="1.1" xmlns="http://www.w3.org/2000/svg" xmlns:xlink="http://www.w3.org/1999/xlink">
<defs>
<symbol id="icon-triangle-left" viewBox="0 0 20 20">
<title>triangle-left</title>
<path d="M14 5v10l-9-5 9-5z"></path>
</symbol>
<symbol id="icon-triangle-right" viewBox="0 0 20 20">
<title>triangle-right</title>
<path d="M15 10l-9 5v-10l9 5z"></path>
</symbol>
<symbol id="icon-check" viewBox="0 0 20 20">
<title>check</title>
<path d="M8.294 16.998c-0.435 0-0.847-0.203-1.111-0.553l-3.573-4.721c-0.465-0.613-0.344-1.486 0.27-1.951 0.615-0.467 1.488-0.344 1.953 0.27l2.351 3.104 5.911-9.492c0.407-0.652 1.267-0.852 1.921-0.445s0.854 1.266 0.446 1.92l-6.984 11.21c-0.242 0.391-0.661 0.635-1.12 0.656-0.022 0.002-0.042 0.002-0.064 0.002z"></path>
</symbol>
<symbol id="icon-circle-with-cross" viewBox="0 0 20 20">
<title>circle-with-cross</title>
<path d="M10 1.6c-4.639 0-8.4 3.761-8.4 8.4s3.761 8.4 8.4 8.4 8.4-3.761 8.4-8.4c0-4.639-3.761-8.4-8.4-8.4zM14.789 13.061l-1.729 1.729-3.060-3.061-3.061 3.060-1.729-1.729 3.062-3.060-3.061-3.061 1.729-1.728 3.060 3.060 3.061-3.061 1.729 1.729-3.062 3.061 3.061 3.061z"></path>
</symbol>
<symbol id="icon-circle-with-minus" viewBox="0 0 20 20">
<title>circle-with-minus</title>
<path d="M10 1.6c-4.639 0-8.4 3.761-8.4 8.4s3.761 8.4 8.4 8.4 8.4-3.761 8.4-8.4c0-4.639-3.761-8.4-8.4-8.4zM15 11h-10v-2h10v2z"></path>
</symbol>
<symbol id="icon-circle-with-plus" viewBox="0 0 20 20">
<title>circle-with-plus</title>
<path d="M10 1.6c-4.639 0-8.4 3.761-8.4 8.4s3.761 8.4 8.4 8.4 8.4-3.761 8.4-8.4c0-4.639-3.761-8.4-8.4-8.4zM15 11h-4v4h-2v-4h-4v-2h4v-4h2v4h4v2z"></path>
</symbol>
<symbol id="icon-cw" viewBox="0 0 20 20">
<title>cw</title>
<path d="M19.315 10h-2.372v-0.205c-0.108-4.434-3.724-7.996-8.169-7.996-4.515 0-8.174 3.672-8.174 8.201s3.659 8.199 8.174 8.199c1.898 0 3.645-0.65 5.033-1.738l-1.406-1.504c-1.016 0.748-2.27 1.193-3.627 1.193-3.386 0-6.131-2.754-6.131-6.15s2.745-6.15 6.131-6.15c3.317 0 6.018 2.643 6.125 5.945v0.205h-2.672l3.494 3.894 3.594-3.894z"></path>
</symbol>
<symbol id="icon-heart-outlined" viewBox="0 0 20 20">
<title>heart-outlined</title>
<path d="M17.19 4.156c-1.672-1.535-4.383-1.535-6.055 0l-1.135 1.041-1.136-1.041c-1.672-1.535-4.382-1.535-6.054 0-1.881 1.726-1.881 4.519 0 6.245l7.19 6.599 7.19-6.599c1.88-1.726 1.88-4.52 0-6.245zM16.124 9.375l-6.124 5.715-6.125-5.715c-0.617-0.567-0.856-1.307-0.856-2.094s0.138-1.433 0.756-1.999c0.545-0.501 1.278-0.777 2.063-0.777s1.517 0.476 2.062 0.978l2.1 1.825 2.099-1.826c0.546-0.502 1.278-0.978 2.063-0.978s1.518 0.276 2.063 0.777c0.618 0.566 0.755 1.212 0.755 1.999s-0.238 1.528-0.856 2.095z"></path>
</symbol>
<symbol id="icon-heart" viewBox="0 0 20 20">
<title>heart</title>
<path d="M17.19 4.155c-1.672-1.534-4.383-1.534-6.055 0l-1.135 1.042-1.136-1.042c-1.672-1.534-4.382-1.534-6.054 0-1.881 1.727-1.881 4.52 0 6.246l7.19 6.599 7.19-6.599c1.88-1.726 1.88-4.52 0-6.246z"></path>
</symbol>
<symbol id="icon-magnifying-glass" viewBox="0 0 20 20">
<title>magnifying-glass</title>
<path d="M17.545 15.467l-3.779-3.779c0.57-0.935 0.898-2.035 0.898-3.21 0-3.417-2.961-6.377-6.378-6.377s-6.186 2.769-6.186 6.186c0 3.416 2.961 6.377 6.377 6.377 1.137 0 2.2-0.309 3.115-0.844l3.799 3.801c0.372 0.371 0.975 0.371 1.346 0l0.943-0.943c0.371-0.371 0.236-0.84-0.135-1.211zM4.004 8.287c0-2.366 1.917-4.283 4.282-4.283s4.474 2.107 4.474 4.474c0 2.365-1.918 4.283-4.283 4.283s-4.473-2.109-4.473-4.474z"></path>
</symbol>
<symbol id="icon-man" viewBox="0 0 20 20">
<title>man</title>
<path d="M10 4c1.104 0 2-0.896 2-2s-0.896-2-2-2-2 0.895-2 2c0 1.104 0.896 2 2 2zM15.978 11.583c-0.385-1.775-1.058-4.688-2.042-5.894-0.957-1.173-2.885-1.222-3.936-1.222v0c-1.051 0-2.979 0.049-3.936 1.222-0.984 1.206-1.657 4.119-2.042 5.894-0.213 0.983 1.154 1.344 1.511 0.355 0.531-1.473 0.941-2.71 1.839-3.736 0.472 2.907-1.27 7.966-1.372 10.798 0 0.552 0.448 1 1 1 0.426 0 0.79-0.266 0.934-0.642 0.457-1.587 2.066-6.003 2.066-6.003v0 0c0 0 1.609 4.416 2.066 6.003 0.144 0.376 0.508 0.642 0.934 0.642 0.552 0 1-0.448 1-1-0.102-2.832-1.844-7.891-1.372-10.797 0.898 1.026 1.308 2.263 1.839 3.736 0.356 0.988 1.724 0.627 1.511-0.356z"></path>
</symbol>
<symbol id="icon-shopping-cart" viewBox="0 0 20 20">
<title>shopping-cart</title>
<path d="M13 17c0 1.104 0.894 2 2 2 1.104 0 2-0.896 2-2 0-1.106-0.896-2-2-2-1.106 0-2 0.894-2 2zM3 17c0 1.104 0.895 2 2 2 1.103 0 2-0.896 2-2 0-1.106-0.897-2-2-2-1.105 0-2 0.894-2 2zM6.547 12.172l11.068-3.162c0.211-0.061 0.385-0.289 0.385-0.51v-5.5h-14v-1.6c0-0.22-0.181-0.4-0.399-0.4h-3.202c-0.219 0-0.399 0.18-0.399 0.4v1.6h2l1.91 8.957 0.090 0.943v1.649c0 0.219 0.18 0.4 0.4 0.4h13.2c0.22 0 0.4-0.182 0.4-0.4v-1.549h-11.248c-1.15 0-1.174-0.551-0.205-0.828z"></path>
</symbol>
<symbol id="icon-squared-cross" viewBox="0 0 20 20">
<title>squared-cross</title>
<path d="M16 2h-12c-1.1 0-2 0.9-2 2v12c0 1.1 0.9 2 2 2h12c1.1 0 2-0.9 2-2v-12c0-1.1-0.9-2-2-2zM13.061 14.789l-3.061-3.060-3.061 3.060-1.729-1.728 3.061-3.061-3.060-3.061 1.729-1.729 3.060 3.061 3.059-3.061 1.729 1.729-3.059 3.061 3.060 3.061-1.728 1.728z"></path>
</symbol>
<symbol id="icon-stopwatch" viewBox="0 0 20 20">
<title>stopwatch</title>
<path d="M7.376 6.745c-0.447 0.275 1.197 4.242 1.598 4.888 0.35 0.569 1.093 0.742 1.658 0.394 0.568-0.352 0.745-1.094 0.395-1.66-0.397-0.648-3.205-3.898-3.651-3.622zM7.041 2.402c0.928-0.323 1.922-0.502 2.959-0.502s2.031 0.179 2.959 0.502c0.329 0.114 0.765-0.115 0.572-0.611-0.141-0.36-0.277-0.712-0.332-0.855-0.131-0.339-0.6-0.619-0.804-0.665-0.772-0.174-1.572-0.271-2.395-0.271s-1.623 0.097-2.396 0.271c-0.204 0.046-0.672 0.326-0.803 0.665-0.055 0.143-0.192 0.495-0.332 0.855-0.193 0.496 0.243 0.726 0.572 0.611zM19.098 3.186c-0.192-0.23-0.396-0.455-0.613-0.672-0.216-0.217-0.441-0.42-0.67-0.613-0.153-0.129-0.603-0.234-0.888 0.051s-1.648 1.647-1.648 1.647c0.402 0.288 0.793 0.605 1.155 0.966s0.677 0.752 0.966 1.155c0 0 1.363-1.362 1.647-1.647 0.286-0.286 0.181-0.735 0.051-0.887zM10 2.9c-4.475 0-8.101 3.626-8.101 8.1s3.626 8.101 8.101 8.101c4.473 0 8.1-3.626 8.1-8.101 0-4.473-3.627-8.1-8.1-8.1zM10 17.101c-3.368 0-6.1-2.731-6.1-6.1s2.731-6.1 6.1-6.1c3.369 0 6.101 2.731 6.101 6.1s-2.732 6.1-6.101 6.1z"></path>
</symbol>
<symbol id="icon-menu" viewBox="0 0 20 20">
<title>menu</title>
<path d="M2.25,12.584c-0.713,0-1.292,0.578-1.292,1.291s0.579,1.291,1.292,1.291c0.713,0,1.292-0.578,1.292-1.291S2.963,12.584,2.25,12.584z M2.25,14.307c-0.238,0-0.43-0.193-0.43-0.432s0.192-0.432,0.43-0.432c0.238,0,0.431,0.193,0.431,0.432S2.488,14.307,2.25,14.307z M5.694,6.555H18.61c0.237,0,0.431-0.191,0.431-0.43s-0.193-0.431-0.431-0.431H5.694c-0.238,0-0.43,0.192-0.43,0.431S5.457,6.555,5.694,6.555z M2.25,8.708c-0.713,0-1.292,0.578-1.292,1.291c0,0.715,0.579,1.292,1.292,1.292c0.713,0,1.292-0.577,1.292-1.292C3.542,9.287,2.963,8.708,2.25,8.708z M2.25,10.43c-0.238,0-0.43-0.192-0.43-0.431c0-0.237,0.192-0.43,0.43-0.43c0.238,0,0.431,0.192,0.431,0.43C2.681,10.238,2.488,10.43,2.25,10.43z M18.61,9.57H5.694c-0.238,0-0.43,0.192-0.43,0.43c0,0.238,0.192,0.431,0.43,0.431H18.61c0.237,0,0.431-0.192,0.431-0.431C19.041,9.762,18.848,9.57,18.61,9.57z M18.61,13.443H5.694c-0.238,0-0.43,0.193-0.43,0.432s0.192,0.432,0.43,0.432H18.61c0.237,0,0.431-0.193,0.431-0.432S18.848,13.443,18.61,13.443z M2.25,4.833c-0.713,0-1.292,0.578-1.292,1.292c0,0.713,0.579,1.291,1.292,1.291c0.713,0,1.292-0.578,1.292-1.291C3.542,5.412,2.963,4.833,2.25,4.833z M2.25,6.555c-0.238,0-0.43-0.191-0.43-0.43s0.192-0.431,0.43-0.431c0.238,0,0.431,0.192,0.431,0.431S2.488,6.555,2.25,6.555z"></path>
</symbol>
<symbol id="icon-dron" viewBox="0 0 20 20">
<title>dron</title>
<path d="M18.21,16.157v-8.21c0-0.756-0.613-1.368-1.368-1.368h-1.368v1.368v1.368v6.841l-1.368,3.421h5.473L18.21,16.157z"></path>
<path d="M4.527,9.316V7.948V6.579H3.159c-0.756,0-1.368,0.613-1.368,1.368v8.21l-1.368,3.421h5.473l-1.368-3.421V9.316z"></path>
<path d="M14.766,5.895h0.023V5.21c0-2.644-2.145-4.788-4.789-4.788S5.211,2.566,5.211,5.21v0.685h0.023H14.766zM12.737,3.843c0.378,0,0.684,0.307,0.684,0.684s-0.306,0.684-0.684,0.684c-0.378,0-0.684-0.307-0.684-0.684S12.358,3.843,12.737,3.843z M10,1.448c0.755,0,1.368,0.613,1.368,1.368S10.755,4.185,10,4.185c-0.756,0-1.368-0.613-1.368-1.368S9.244,1.448,10,1.448z"></path>
<path d="M14.789,6.579H5.211v9.578l1.368,1.368h6.841l1.368-1.368V6.579z M12.052,12.052H7.948c-0.378,0-0.684-0.306-0.684-0.684c0-0.378,0.306-0.684,0.684-0.684h4.105c0.378,0,0.684,0.306,0.684,0.684C12.737,11.746,12.431,12.052,12.052,12.052z M12.052,9.316H7.948c-0.378,0-0.684-0.307-0.684-0.684s0.306-0.684,0.684-0.684h4.105c0.378,0,0.684,0.307,0.684,0.684S12.431,9.316,12.052,9.316z"></path>
</symbol>
<symbol id="icon-target" viewBox="0 0 20 20">
<title>target</title>
<path d="M17.659,9.597h-1.224c-0.199-3.235-2.797-5.833-6.032-6.033V2.341c0-0.222-0.182-0.403-0.403-0.403S9.597,2.119,9.597,2.341v1.223c-3.235,0.2-5.833,2.798-6.033,6.033H2.341c-0.222,0-0.403,0.182-0.403,0.403s0.182,0.403,0.403,0.403h1.223c0.2,3.235,2.798,5.833,6.033,6.032v1.224c0,0.222,0.182,0.403,0.403,0.403s0.403-0.182,0.403-0.403v-1.224c3.235-0.199,5.833-2.797,6.032-6.032h1.224c0.222,0,0.403-0.182,0.403-0.403S17.881,9.597,17.659,9.597 M14.435,10.403h1.193c-0.198,2.791-2.434,5.026-5.225,5.225v-1.193c0-0.222-0.182-0.403-0.403-0.403s-0.403,0.182-0.403,0.403v1.193c-2.792-0.198-5.027-2.434-5.224-5.225h1.193c0.222,0,0.403-0.182,0.403-0.403S5.787,9.597,5.565,9.597H4.373C4.57,6.805,6.805,4.57,9.597,4.373v1.193c0,0.222,0.182,0.403,0.403,0.403s0.403-0.182,0.403-0.403V4.373c2.791,0.197,5.026,2.433,5.225,5.224h-1.193c-0.222,0-0.403,0.182-0.403,0.403S14.213,10.403,14.435,10.403"></path>
<symbol>
<symbol id="icon-true" viewBox="0 0 20 20">
<title>true</title>
<path d="M10.219,1.688c-4.471,0-8.094,3.623-8.094,8.094s3.623,8.094,8.094,8.094s8.094-3.623,8.094-8.094S14.689,1.688,10.219,1.688 M10.219,17.022c-3.994,0-7.242-3.247-7.242-7.241c0-3.994,3.248-7.242,7.242-7.242c3.994,0,7.241,3.248,7.241,7.242C17.46,13.775,14.213,17.022,10.219,17.022 M15.099,7.03c-0.167-0.167-0.438-0.167-0.604,0.002L9.062,12.48l-2.269-2.277c-0.166-0.167-0.437-0.167-0.603,0c-0.166,0.166-0.168,0.437-0.002,0.603l2.573,2.578c0.079,0.08,0.188,0.125,0.3,0.125s0.222-0.045,0.303-0.125l5.736-5.751C15.268,7.466,15.265,7.196,15.099,7.03"></path>
<symbol>
<symbol id="icon-false" viewBox="0 0 20 20">
<title>false</title>
<path d="M10.185,1.417c-4.741,0-8.583,3.842-8.583,8.583c0,4.74,3.842,8.582,8.583,8.582S18.768,14.74,18.768,10C18.768,5.259,14.926,1.417,10.185,1.417 M10.185,17.68c-4.235,0-7.679-3.445-7.679-7.68c0-4.235,3.444-7.679,7.679-7.679S17.864,5.765,17.864,10C17.864,14.234,14.42,17.68,10.185,17.68 M10.824,10l2.842-2.844c0.178-0.176,0.178-0.46,0-0.637c-0.177-0.178-0.461-0.178-0.637,0l-2.844,2.841L7.341,6.52c-0.176-0.178-0.46-0.178-0.637,0c-0.178,0.176-0.178,0.461,0,0.637L9.546,10l-2.841,2.844c-0.178,0.176-0.178,0.461,0,0.637c0.178,0.178,0.459,0.178,0.637,0l2.844-2.841l2.844,2.841c0.178,0.178,0.459,0.178,0.637,0c0.178-0.176,0.178-0.461,0-0.637L10.824,10z"></path>
<symbol>
</defs>
</svg>
